<svg id="visual" viewBox="0 0 900 600" width="900" height="600" xmlns="http://www.w3.org/2000/svg" xmlns:xlink="http://www.w3.org/1999/xlink" version="1.1"><rect x="0" y="0" width="900" height="600" fill="#001220"></rect><path d="M0 353L21.5 358.2C43 363.3 86 373.7 128.8 386.7C171.7 399.7 214.3 415.3 257.2 410.2C300 405 343 379 385.8 368.2C428.7 357.3 471.3 361.7 514.2 376.8C557 392 600 418 642.8 431.5C685.7 445 728.3 446 771.2 440.3C814 434.7 857 422.3 878.5 416.2L900 410L900 601L878.5 601C857 601 814 601 771.2 601C728.3 601 685.7 601 642.8 601C600 601 557 601 514.2 601C471.3 601 428.7 601 385.8 601C343 601 300 601 257.2 601C214.3 601 171.7 601 128.8 601C86 601 43 601 21.5 601L0 601Z" fill="#cdaba9"></path><path d="M0 415L21.5 412.7C43 410.3 86 405.7 128.8 409.3C171.7 413 214.3 425 257.2 438C300 451 343 465 385.8 460.3C428.7 455.7 471.3 432.3 514.2 419.7C557 407 600 405 642.8 402.5C685.7 400 728.3 397 771.2 398.2C814 399.3 857 404.7 878.5 407.3L900 410L900 601L878.5 601C857 601 814 601 771.2 601C728.3 601 685.7 601 642.8 601C600 601 557 601 514.2 601C471.3 601 428.7 601 385.8 601C343 601 300 601 257.2 601C214.3 601 171.7 601 128.8 601C86 601 43 601 21.5 601L0 601Z" fill="#d9af97"></path><path d="M0 452L21.5 454.2C43 456.3 86 460.7 128.8 470C171.7 479.3 214.3 493.7 257.2 497.5C300 501.3 343 494.7 385.8 490.3C428.7 486 471.3 484 514.2 483.5C557 483 600 484 642.8 484.7C685.7 485.3 728.3 485.7 771.2 481.2C814 476.7 857 467.3 878.5 462.7L900 458L900 601L878.5 601C857 601 814 601 771.2 601C728.3 601 685.7 601 642.8 601C600 601 557 601 514.2 601C471.3 601 428.7 601 385.8 601C343 601 300 601 257.2 601C214.3 601 171.7 601 128.8 601C86 601 43 601 21.5 601L0 601Z" fill="#d8b58b"></path><path d="M0 509L21.5 513C43 517 86 525 128.8 526C171.7 527 214.3 521 257.2 514.7C300 508.3 343 501.7 385.8 504.8C428.7 508 471.3 521 514.2 525.3C557 529.7 600 525.3 642.8 523.7C685.7 522 728.3 523 771.2 520C814 517 857 510 878.5 506.5L900 503L900 601L878.5 601C857 601 814 601 771.2 601C728.3 601 685.7 601 642.8 601C600 601 557 601 514.2 601C471.3 601 428.7 601 385.8 601C343 601 300 601 257.2 601C214.3 601 171.7 601 128.8 601C86 601 43 601 21.5 601L0 601Z" fill="#d9af97"></path><path d="M0 569L21.5 565.5C43 562 86 555 128.8 554C171.7 553 214.3 558 257.2 559.7C300 561.3 343 559.7 385.8 560.3C428.7 561 471.3 564 514.2 562.7C557 561.3 600 555.7 642.8 555.8C685.7 556 728.3 562 771.2 564.2C814 566.3 857 564.7 878.5 563.8L900 563L900 601L878.5 601C857 601 814 601 771.2 601C728.3 601 685.7 601 642.8 601C600 601 557 601 514.2 601C471.3 601 428.7 601 385.8 601C343 601 300 601 257.2 601C214.3 601 171.7 601 128.8 601C86 601 43 601 21.5 601L0 601Z" fill="#cdaba9"></path></svg>