<svg id="visual" viewBox="0 0 900 600" width="900" height="600" xmlns="http://www.w3.org/2000/svg" xmlns:xlink="http://www.w3.org/1999/xlink" version="1.1"><rect x="0" y="0" width="900" height="600" fill="#dfdfdf"></rect><path d="M0 428L21.5 428.8C43 429.7 86 431.3 128.8 445.3C171.7 459.3 214.3 485.7 257.2 476.7C300 467.7 343 423.3 385.8 413.5C428.7 403.7 471.3 428.3 514.2 434C557 439.7 600 426.3 642.8 438.2C685.7 450 728.3 487 771.2 494C814 501 857 478 878.5 466.5L900 455L900 601L878.5 601C857 601 814 601 771.2 601C728.3 601 685.7 601 642.8 601C600 601 557 601 514.2 601C471.3 601 428.7 601 385.8 601C343 601 300 601 257.2 601C214.3 601 171.7 601 128.8 601C86 601 43 601 21.5 601L0 601Z" fill="#FFFFFF" stroke-linecap="round" stroke-linejoin="miter"></path></svg>